<?xml version="1.0" encoding="utf-8"?>
<!-- Generator: Adobe Illustrator 21.1.0, SVG Export Plug-In . SVG Version: 6.00 Build 0)  -->
<svg version="1.1" id="Layer_1" xmlns="http://www.w3.org/2000/svg" xmlns:xlink="http://www.w3.org/1999/xlink" x="0px" y="0px"
	 viewBox="0 0 32 32" style="enable-background:new 0 0 32 32;" xml:space="preserve">
<style type="text/css">
	.st0{fill:#FFFFFF;}
</style>
<g>
	<path class="st0" d="M15.6,31.8c-1.2,0-2.4-0.2-3.6-0.5C3.1,28.9-2.1,19,1.2,10.3c0-0.1,0-0.1,0.1-0.2c1-2.4,2.4-4.4,4.3-6.1
		c1.5-1.3,3.2-2.3,5.1-3c2.1-0.7,4.2-1,6.4-0.8c5.2,0.4,9.8,3.4,12.4,7.8c2.3,3.9,2.8,8.6,1.3,12.8c-1,3.1-2.9,5.6-5.4,7.6
		c-2,1.6-4.3,2.6-6.8,3C17.8,31.7,16.9,31.8,15.6,31.8z M21.8,13c-1.5,1.1-3,2.1-4.6,3.2c1.1,1.5,2.1,3,3.2,4.6
		c1.3-0.9,2.6-1.8,3.9-2.7C23.7,16.3,22.8,14.6,21.8,13z M11.2,20.4C11.2,20.5,11.2,20.5,11.2,20.4c1.1,1.5,2.3,2.9,3.7,4
		c0.1,0.1,0.1,0.1,0.2,0c0.9-0.6,1.9-1.3,2.8-1.9c0.3-0.2,0.7-0.5,1-0.7c-1.1-1.5-2.1-3-3.2-4.6C14.2,18.3,12.7,19.4,11.2,20.4z
		 M20.7,11.5C20.7,11.5,20.7,11.5,20.7,11.5c-1.1-1.5-2.3-2.9-3.7-4.1c-0.1-0.1-0.1-0.1-0.2,0c-0.9,0.6-1.8,1.3-2.7,1.9
		c-0.4,0.3-0.7,0.5-1.1,0.8c1.1,1.5,2.1,3,3.2,4.6C17.7,13.6,19.2,12.6,20.7,11.5z M11.5,11.2c-1.3,0.9-2.6,1.8-3.9,2.7
		c0.7,1.8,1.5,3.4,2.6,5c1.5-1.1,3-2.1,4.5-3.2C13.6,14.2,12.6,12.7,11.5,11.2z M26.8,7.3c0,0-0.1-0.1-0.1-0.1
		c-1.2-1.4-2.6-2.6-4.2-3.5c-0.1-0.1-0.2,0-0.2,0c-1,0.7-2,1.4-2.9,2.1c-0.3,0.2-0.5,0.4-0.8,0.5c1.4,1.3,2.6,2.7,3.7,4.2
		C23.8,9.4,25.3,8.4,26.8,7.3z M9.7,21.5c-1.5,1.1-3,2.1-4.6,3.2c0,0,0,0,0,0.1c1.2,1.5,2.6,2.7,4.3,3.6c0.1,0,0.1,0,0.2,0
		c0.9-0.6,1.8-1.2,2.7-1.9c0.3-0.2,0.7-0.5,1.1-0.7C12,24.4,10.8,23,9.7,21.5z M6,15c-0.2,0.2-0.5,0.3-0.7,0.5c-1,0.7-2,1.4-3,2.1
		c-0.1,0-0.1,0.1-0.1,0.2c0.2,1.5,0.6,3,1.3,4.4c0.2,0.3,0.4,0.7,0.5,1C5.6,22.1,7.1,21,8.6,20C7.6,18.4,6.7,16.8,6,15z M27.9,8.8
		c-1.5,1.1-3,2.1-4.6,3.2c1,1.6,1.9,3.2,2.6,5c0.3-0.2,0.5-0.3,0.7-0.5c1-0.7,2-1.4,3-2.1c0.1,0,0.1-0.1,0.1-0.2
		c-0.2-1.5-0.7-3-1.4-4.4C28.3,9.4,28.1,9.1,27.9,8.8z M11.9,8.6c1.2-0.8,2.3-1.6,3.5-2.4c0,0,0,0-0.1,0c-1.1-0.8-2.2-1.4-3.5-1.8
		C11.1,4.1,10.3,3.9,9.5,4c-0.2,0-0.4,0.1-0.6,0.1C9.9,5.6,10.9,7.1,11.9,8.6z M10.4,9.6c-1-1.5-2-2.9-3.1-4.4
		C7.2,5.4,7.1,5.5,7.1,5.7C6.6,6.5,6.5,7.4,6.5,8.3c0,1.1,0.1,2.3,0.4,3.4c0,0.1,0.1,0.2,0.1,0.4C8.1,11.2,9.3,10.4,10.4,9.6z
		 M16.5,25.8c1.1,0.8,2.4,1.5,3.7,1.9c0.8,0.2,1.6,0.3,2.5,0.2c0.1,0,0.2,0,0.3-0.1c-1-1.5-2.1-3-3.1-4.4
		C18.8,24.2,17.7,25,16.5,25.8z M21.5,22.3c1,1.5,2,2.9,3.1,4.4c0,0,0.1-0.1,0.1-0.1c0.5-0.8,0.7-1.6,0.8-2.5c0.1-1.1,0-2.2-0.3-3.3
		c-0.1-0.3-0.1-0.6-0.2-0.9C23.8,20.7,22.7,21.5,21.5,22.3z M19.5,29.4c-1.7-0.5-3.2-1.4-4.6-2.5c-1.1,0.8-2.2,1.5-3.3,2.3
		C14.3,30.1,16.9,30.1,19.5,29.4z M20.3,2.8c-2.6-0.8-5.2-0.9-7.9-0.2c0.8,0.3,1.6,0.6,2.4,1.1c0.8,0.4,1.5,0.9,2.2,1.4
		C18.1,4.3,19.2,3.5,20.3,2.8z M27.3,24c1.6-2.3,2.4-4.8,2.5-7.5c-0.1,0-0.1,0.1-0.1,0.1c-1,0.7-2,1.4-3,2.1
		c-0.1,0.1-0.2,0.2-0.1,0.3c0,0.1,0.1,0.2,0.1,0.3c0.3,1.2,0.6,2.4,0.6,3.6C27.3,23.3,27.3,23.6,27.3,24z M2.1,15.5
		c0.1-0.1,0.1-0.1,0.2-0.1C3.2,14.7,4.1,14,5,13.4c0.3-0.2,0.3-0.2,0.2-0.6c0,0,0-0.1,0-0.1c-0.4-1.4-0.7-2.9-0.6-4.4
		c0-0.1,0-0.2,0-0.3C3,10.2,2.2,12.7,2.1,15.5z"/>
</g>
</svg>
