<?xml version="1.0" encoding="utf-8"?>
<!-- Generator: Adobe Illustrator 21.1.0, SVG Export Plug-In . SVG Version: 6.00 Build 0)  -->
<svg version="1.1" id="Layer_1" xmlns="http://www.w3.org/2000/svg" xmlns:xlink="http://www.w3.org/1999/xlink" x="0px" y="0px"
	 viewBox="0 0 166 57" style="enable-background:new 0 0 166 57;" xml:space="preserve">
<style type="text/css">
	.st0{fill:none;}
	.st1{fill:#FFFFFF;}
	.st2{fill:#4C4C4C;}
</style>
<g>
	<polygon class="st0" points="95.7,48.9 97.4,48.9 98.1,47.7 96.4,47.7 	"/>
	<polygon class="st0" points="106.9,47.7 106,49.3 107.1,50.4 108.5,47.7 	"/>
	<polygon class="st0" points="123.9,15.5 116.3,26.1 131.5,26.1 	"/>
	<polygon class="st0" points="54.1,48.9 55.9,48.9 56.5,47.7 54.8,47.7 	"/>
	<polygon class="st0" points="150.5,47.7 149.8,48.9 153.6,48.9 154.2,47.7 	"/>
	<polygon class="st1" points="35.4,4 29.4,12.5 42.2,12.5 48.2,4 	"/>
	<path class="st2" d="M52.1,2H34.4l-8.9,12.5h17.7L52.1,2z M29.4,12.5l6-8.5h12.8l-6,8.5H29.4z"/>
	<polygon class="st1" points="25.6,17.7 8.1,42.3 21,42.3 38.4,17.7 	"/>
	<path class="st2" d="M42.3,15.7H24.6L4.3,44.3H22L42.3,15.7z M8.1,42.3l17.5-24.6h12.8L21,42.3H8.1z"/>
	<path class="st1" d="M102.4,42.3l4.9-6.9h33.3l4.9,6.9h12.8L131,4h-14.2L89.5,42.3H102.4z M123.9,12l11.4,16.1h-22.9L123.9,12z"/>
	<path class="st2" d="M103.4,44.3l4.9-6.9h31.3l4.9,6.9h17.7L132,2h-16.3L85.7,44.3H103.4z M131,4l27.3,38.3h-12.8l-4.9-6.9h-33.3
		l-4.9,6.9H89.5L116.8,4H131z"/>
	<path class="st2" d="M123.9,12l-11.4,16.1h22.9L123.9,12z M123.9,15.5l7.6,10.7h-15.1L123.9,15.5z"/>
	<path class="st1" d="M45.5,20.1c0,4.7,5.8,6,8.9,6h22.1c2.3,0,3.8,0.8,4.4,1.5c0.6,0.9,0.7,2.4-0.6,3.7c-0.6,0.6-2.9,2.6-7.2,2.6
		H34.4l-5.9,8.4h38.2c7.5,0,13.9-2.4,19.9-7.4c4.9-4.1,6-8.8,6-10.1c0-4.6-3.3-7-9.5-7H61.3c-1.4,0-2-0.8-2.1-1.1
		c-0.4-0.8-0.2-1.7,0.5-2.5c1.1-1.3,2.1-1.6,5.1-1.6h34.8l6.8-8.5h-37c-4.8,0-9.5,1.3-14,3.8C51.4,10,45.5,15.4,45.5,20.1z"/>
	<path class="st2" d="M43.5,20.1c0,6.3,7.1,8,10.9,8h22.1c1.8,0,2.6,0.5,2.7,0.7c0,0,0.3,0.4-0.4,1.1c-0.5,0.5-2.3,2-5.8,2H33.4
		l-8.7,12.4h42.1c8,0,14.8-2.5,21.2-7.9c4.9-4.1,6.7-9.2,6.7-11.6c0-2.7-1.1-9-11.5-9H61.3c-0.1,0-0.2,0-0.3,0
		c0-0.1,0.1-0.2,0.2-0.3c0.6-0.7,0.8-0.9,3.5-0.9h35.7L110.6,2H69.4c-5.2,0-10.2,1.4-15,4C50.2,8.4,43.5,14.3,43.5,20.1z M69.4,4h37
		l-6.8,8.5H64.8c-3,0-3.9,0.3-5.1,1.6c-0.7,0.8-0.9,1.7-0.5,2.5c0.2,0.3,0.7,1.1,2.1,1.1h21.9c6.2,0,9.5,2.4,9.5,7
		c0,1.3-1.1,6-6,10.1c-6.1,5.1-12.4,7.4-19.9,7.4H28.5l5.9-8.4H73c4.3,0,6.6-2,7.2-2.6c1.3-1.3,1.2-2.8,0.6-3.7
		c-0.5-0.8-2.1-1.5-4.4-1.5H54.4c-3.1,0-8.9-1.3-8.9-6c0-4.7,5.9-10.1,9.8-12.3C59.8,5.3,64.6,4,69.4,4z"/>
	<polygon class="st2" points="30.2,47.1 27.4,47.1 27.1,47.7 29.9,47.7 	"/>
	<polygon class="st2" points="39.9,47.1 39.6,47.7 42.5,47.7 42.8,47.1 	"/>
	<path class="st2" d="M54.5,47.1l-1.1,2.3h2.8l1.1-2.3H54.5z M55.9,48.9h-1.7l0.6-1.3h1.7L55.9,48.9z"/>
	<polygon class="st2" points="67,47.1 66.7,47.7 69.6,47.7 69.8,47.1 	"/>
	<path class="st2" d="M74.6,45.5h-2h-0.5h-5.7h-0.5h-2l-1.2,2.3l-2.3-2.3h-0.3h-0.5h-5.7h-0.5h-1.5h-0.5h-5.7H45h-5.7h-0.5h-2
		l-1.2,2.3l-2.3-2.3H33h-0.5h-5.7h-0.5h-5.7H20h-5.7h-0.5h-2l-1.2,2.3l-2.3-2.3H7.9H7.4h-2l-2.8,5.5h2h0.5h2l1.1-2.3l2.3,2.3h0.8
		l1.7-3.4h1.6L13,51.1h2.5l1.7-3.4h1.6l-1.7,3.4h6.3H24h2l1.2-2.5l2.5,2.5l0,0h0l1.4,1.4h3.1l-1.8-1.8l1-1.9l2.3,2.3H36h0.5h2
		l0.9-1.7h1.7l-0.9,1.7h2.5l1.7-3.4h1.6l-1.7,3.4h2.5l1.7-3.4h1.6l-1.7,3.4h2h0.5h5.7h0.5h2l1.1-2.3l2.3,2.3h0.3h0.5h2l0.9-1.7h1.7
		l-0.9,1.7h2h0.5h6.3l1.1-2.1h-4.3L74.6,45.5z M5.7,46h1.4l-2.3,4.5H3.4L5.7,46z M8,46l2.6,2.7L12,46h1.4l-2.3,4.5h-0.3l-2.7-2.6
		l-1.3,2.6H5.5L7.7,46H8z M15.6,47.1h-2.1L14,46h5.7l-0.6,1.1H17l-1.7,3.4h-1.4L15.6,47.1z M25.9,46l-0.6,1.1h-5.7l0.6-1.1H25.9z
		 M19.4,47.7h5.7l-0.6,1.1h-5.7L19.4,47.7z M18.6,49.4h5.7l-0.6,1.1H18L18.6,49.4z M31.4,52l-4.3-4.3l-1.4,2.8h-1.4l2.3-4.5h5.7
		l-1.4,2.8h-0.9l1,1l1.9-3.8h0.3l2.6,2.7l1.3-2.7h1.4l-2.3,4.5h-0.3l-2.7-2.6l-1.3,2.6h-0.3l1.4,1.4H31.4z M41.9,48.8h-2.8l-0.9,1.7
		h-1.4l2.3-4.5h5.7l-2.3,4.5h-1.4L41.9,48.8z M46.9,47.1h-2.1l0.6-1.1H51l-0.6,1.1h-2.1l-1.7,3.4h-1.4L46.9,47.1z M51.6,46H53
		l-2.3,4.5h-1.4L51.6,46z M59.3,46L57,50.5h-5.7l2.3-4.5H59.3z M60.2,46l2.6,2.7l1.3-2.7h1.4l-2.3,4.5H63l-2.7-2.6L59,50.5h-1.4
		l2.3-4.5H60.2z M69,48.8h-2.8l-0.9,1.7h-1.4l2.3-4.5h5.7l-2.3,4.5h-1.4L69,48.8z M76.4,49.4l-0.6,1.1h-5.7l2.3-4.5h1.4l-1.7,3.4
		H76.4z"/>
	<polygon class="st2" points="92.6,47.1 89.8,47.1 89.5,47.7 92.3,47.7 	"/>
	<path class="st2" d="M96,47.1l-1.1,2.3h2.8l1.1-2.3H96z M97.4,48.9h-1.7l0.6-1.3h1.7L97.4,48.9z"/>
	<polygon class="st2" points="105.1,47.1 102.3,47.1 102,47.7 104.9,47.7 	"/>
	<path class="st2" d="M113.7,45.5h-5.7h-0.5h-5.7h-0.5h-5.7h-0.5h-5.7h-0.5h-6.3l-2.8,5.5h6.3h0.5h2l1.2-2.5l0.8,0.8H93l-0.9,1.7
		h6.3h0.5h2l1.2-2.5l3.9,3.9h3.1l-1.4-1.4h1.5l1.7-3.4h1.6l-1.7,3.4h6.8l2.8-5.5h-6.3H113.7z M81,49.4h4.3l0.3-0.6h-4.3l1.4-2.8h5.7
		l-0.6,1.1h-4.3l-0.3,0.6h4.3l-1.4,2.8h-5.7L81,49.4z M94.6,46l-1.4,2.8h-2.6l-1.1-1.1l-1.4,2.8h-1.4l2.3-4.5H94.6z M95.2,46h5.7
		l-2.3,4.5h-5.7L95.2,46z M113.4,46l-0.6,1.1h-2.1l-1.7,3.4h-1.4l1.7-3.4h-2.1l0.6-1.1H113.4z M108,52h-1.7l-4.3-4.3l-1.4,2.8h-1.4
		l2.3-4.5h5.7l-1.4,2.8h-0.9L108,52z M106,49.3l0.8-1.7h1.6l-1.4,2.7L106,49.3z M119.7,46l-0.6,1.1h-4.3l-0.3,0.6h4.3l-1.4,2.8h-5.7
		l0.6-1.1h4.3l0.3-0.6h-4.3L114,46H119.7z"/>
	<polygon class="st2" points="125.1,47.1 124.8,47.7 127.6,47.7 127.9,47.1 	"/>
	<path class="st2" d="M158.7,47.2H157l0.9-1.7h-2h-0.5h-5.7H149h-2l-1.2,2.3l-2.3-2.3h-0.3h-0.5H137h-0.5h-5.7h-0.5h-6.3l-2.8,5.5
		h2.5l0.9-1.7h1.7l-0.9,1.7h2h0.5h5.7h0.5h5.7h0.5h2l1.1-2.3l2.3,2.3h0.3h0.5h5.7h0.5h6.3l2.8-5.5h-2.5L158.7,47.2z M127.1,48.8
		h-2.8l-0.9,1.7H122l2.3-4.5h5.7l-2.3,4.5h-1.4L127.1,48.8z M136.2,46l-0.6,1.1h-4.3l-1.1,2.3h2.8l0.3-0.6h-2.1l0.6-1.1h3.5
		l-1.4,2.8h-5.7l2.3-4.5H136.2z M134.5,50.5l0.6-1.1h5.7l-0.6,1.1H134.5z M135.4,48.8l0.6-1.1h5.7l-0.6,1.1H135.4z M142.4,46
		l-0.6,1.1h-5.7l0.6-1.1H142.4z M143.3,46l2.6,2.7l1.3-2.7h1.4l-2.3,4.5h-0.3l-2.7-2.6l-1.3,2.6h-1.4L143,46H143.3z M155,46
		l-0.6,1.1h-4.3l-1.1,2.3h4.3l-0.6,1.1H147l2.3-4.5H155z M149.8,48.9l0.6-1.3h3.7l-0.6,1.3H149.8z M161.3,46l-2.3,4.5h-5.7l0.6-1.1
		h4.3l0.3-0.6h-4.3l1.4-2.8h1.4l-0.9,1.7h2.8l0.9-1.7H161.3z"/>
	<polygon class="st1" points="4.9,50.5 7.1,46 5.7,46 3.4,50.5 	"/>
	<polygon class="st1" points="5.5,50.5 6.9,50.5 8.2,47.9 10.8,50.5 11.1,50.5 13.4,46 12,46 10.7,48.6 8,46 7.7,46 	"/>
	<polygon class="st1" points="15.3,50.5 17,47.1 19.1,47.1 19.7,46 14,46 13.4,47.1 15.6,47.1 13.9,50.5 	"/>
	<polygon class="st1" points="19.7,47.1 25.4,47.1 25.9,46 20.3,46 	"/>
	<polygon class="st1" points="23.7,50.5 24.2,49.4 18.6,49.4 18,50.5 	"/>
	<polygon class="st1" points="24.5,48.8 25.1,47.7 19.4,47.7 18.8,48.8 	"/>
	<path class="st1" d="M31.6,50.5h0.3l1.3-2.6l2.7,2.6h0.3l2.3-4.5h-1.4l-1.3,2.7L33.1,46h-0.3l-1.9,3.8l-1-1h0.9l1.4-2.8h-5.7
		l-2.3,4.5h1.4l1.4-2.8l4.3,4.3h1.7L31.6,50.5z M27.1,47.7l0.3-0.6h2.8l-0.3,0.6H27.1z"/>
	<path class="st1" d="M42.5,50.5l2.3-4.5h-5.7l-2.3,4.5h1.4l0.9-1.7h2.8l-0.9,1.7H42.5z M42.5,47.7h-2.8l0.3-0.6h2.8L42.5,47.7z"/>
	<polygon class="st1" points="46.6,50.5 48.3,47.1 50.4,47.1 51,46 45.3,46 44.8,47.1 46.9,47.1 45.2,50.5 	"/>
	<polygon class="st1" points="50.7,50.5 53,46 51.6,46 49.3,50.5 	"/>
	<path class="st1" d="M51.3,50.5H57l2.3-4.5h-5.7L51.3,50.5z M56.2,49.4h-2.8l1.1-2.3h2.8L56.2,49.4z"/>
	<polygon class="st1" points="57.6,50.5 59,50.5 60.4,47.9 63,50.5 63.3,50.5 65.6,46 64.1,46 62.8,48.6 60.2,46 59.9,46 	"/>
	<path class="st1" d="M69.6,50.5l2.3-4.5h-5.7l-2.3,4.5h1.4l0.9-1.7H69l-0.9,1.7H69.6z M69.6,47.7h-2.8l0.3-0.6h2.8L69.6,47.7z"/>
	<polygon class="st1" points="72.1,49.4 73.8,46 72.4,46 70.1,50.5 75.8,50.5 76.4,49.4 	"/>
	<polygon class="st1" points="86.1,50.5 87.5,47.7 83.2,47.7 83.5,47.1 87.8,47.1 88.3,46 82.7,46 81.2,48.8 85.5,48.8 85.2,49.4 
		81,49.4 80.4,50.5 	"/>
	<path class="st1" d="M86.7,50.5h1.4l1.4-2.8l1.1,1.1h2.6l1.4-2.8h-5.7L86.7,50.5z M89.5,47.7l0.3-0.6h2.8l-0.3,0.6H89.5z"/>
	<path class="st1" d="M98.6,50.5l2.3-4.5h-5.7l-2.3,4.5H98.6z M97.7,49.4h-2.8l1.1-2.3h2.8L97.7,49.4z"/>
	<path class="st1" d="M104.9,48.8h0.9l1.4-2.8h-5.7l-2.3,4.5h1.4l1.4-2.8l4.3,4.3h1.7L104.9,48.8z M102,47.7l0.3-0.6h2.8l-0.3,0.6
		H102z"/>
	<polygon class="st1" points="107.2,47.1 109.3,47.1 107.6,50.5 109,50.5 110.7,47.1 112.8,47.1 113.4,46 107.7,46 	"/>
	<polygon class="st1" points="112.6,48.8 116.8,48.8 116.6,49.4 112.3,49.4 111.7,50.5 117.4,50.5 118.8,47.7 114.6,47.7 
		114.8,47.1 119.1,47.1 119.7,46 114,46 	"/>
	<path class="st1" d="M127.6,50.5l2.3-4.5h-5.7l-2.3,4.5h1.4l0.9-1.7h2.8l-0.9,1.7H127.6z M127.6,47.7h-2.8l0.3-0.6h2.8L127.6,47.7z
		"/>
	<polygon class="st1" points="128.2,50.5 133.9,50.5 135.3,47.7 131.8,47.7 131.2,48.8 133.3,48.8 133.1,49.4 130.2,49.4 
		131.4,47.1 135.6,47.1 136.2,46 130.5,46 	"/>
	<polygon class="st1" points="136.2,47.1 141.9,47.1 142.4,46 136.8,46 	"/>
	<polygon class="st1" points="141.6,47.7 135.9,47.7 135.4,48.8 141,48.8 	"/>
	<polygon class="st1" points="140.7,49.4 135.1,49.4 134.5,50.5 140.2,50.5 	"/>
	<polygon class="st1" points="140.8,50.5 142.2,50.5 143.5,47.9 146.2,50.5 146.4,50.5 148.7,46 147.3,46 146,48.6 143.3,46 143,46 
			"/>
	<polygon class="st1" points="147,50.5 152.7,50.5 153.3,49.4 149,49.4 150.2,47.1 154.4,47.1 155,46 149.3,46 	"/>
	<polygon class="st1" points="156.1,47.7 157,46 155.6,46 154.2,48.8 158.4,48.8 158.1,49.4 153.9,49.4 153.3,50.5 159,50.5 
		161.3,46 159.8,46 159,47.7 	"/>
</g>
</svg>
